<svg id="Capa_1" enable-background="new 0 0 509.038 509.038" height="512" viewBox="0 0 509.038 509.038" width="512" xmlns="http://www.w3.org/2000/svg"><g><g><g><path d="m353.68 470.017h-198.323l14.984-119.496h168.355z" fill="#b5adb7"/></g></g><g><g><path d="m338.696 350.521h-30l14.984 119.496h30z" fill="#a59da7"/></g></g><g><g><path d="m412.96 501.538h-314.984v-13.073c0-10.188 8.259-18.447 18.447-18.447h278.09c10.188 0 18.447 8.259 18.447 18.447z" fill="#968d97"/></g></g><g><g><path d="m394.513 470.017h-30c10.188 0 18.447 8.259 18.447 18.447v13.073h30v-13.073c0-10.187-8.259-18.447-18.447-18.447z" fill="#877f87"/></g></g><g><g><circle cx="254.519" cy="234.18" fill="#fdfcfc" r="186.149"/></g></g><g><g><path d="m254.519 48.032c-5.05 0-10.051.208-15 .603 95.792 7.639 171.149 87.789 171.149 185.546s-75.357 177.906-171.149 185.546c4.949.395 9.95.603 15 .603 102.807 0 186.149-83.342 186.149-186.149 0-102.808-83.342-186.149-186.149-186.149z" fill="#f1f1f1"/></g></g><g><g><ellipse cx="254.519" cy="234.18" fill="#fdfcfc" rx="94.622" ry="94.622" transform="matrix(.707 -.707 .707 .707 -91.044 248.562)"/></g></g><g><g><ellipse cx="254.519" cy="234.18" fill="#d4cfd5" rx="94.622" ry="94.622" transform="matrix(.707 -.707 .707 .707 -91.044 248.562)"/></g></g><g><g><path d="m254.519 139.558c-5.105 0-10.114.41-15 1.188 45.129 7.189 79.622 46.281 79.622 93.434s-34.493 86.245-79.622 93.434c4.886.778 9.895 1.188 15 1.188 52.258 0 94.622-42.364 94.622-94.622s-42.364-94.622-94.622-94.622z" fill="#c5bec6"/></g></g><g><g><circle cx="254.519" cy="234.18" fill="#968d97" r="49.242"/></g></g><g><g><path d="m254.519 184.938c-5.232 0-10.27.823-15 2.335 19.859 6.345 34.242 24.944 34.242 46.908s-14.383 40.562-34.242 46.908c4.73 1.512 9.768 2.335 15 2.335 27.196 0 49.242-22.046 49.242-49.242s-22.046-49.244-49.242-49.244z" fill="#877f87"/></g></g><g><g><path d="m276.303 104.156h-43.568c-8.556 0-15.493-6.936-15.493-15.493v-43.886c0-20.587 16.689-37.277 37.277-37.277 20.587 0 37.277 16.689 37.277 37.277v43.886c0 8.556-6.937 15.493-15.493 15.493z" fill="#bed9fd"/></g></g><g><path d="m152.397 234.181c0 56.31 45.812 102.122 102.122 102.122s102.122-45.812 102.122-102.122c0-56.311-45.812-102.122-102.122-102.122s-102.122 45.811-102.122 102.122zm189.244 0c0 48.039-39.083 87.122-87.122 87.122s-87.122-39.083-87.122-87.122c0-48.04 39.083-87.122 87.122-87.122s87.122 39.082 87.122 87.122z"/><path d="m197.777 234.181c0 31.288 25.454 56.742 56.742 56.742s56.742-25.455 56.742-56.742-25.454-56.742-56.742-56.742-56.742 25.454-56.742 56.742zm98.484 0c0 23.017-18.726 41.742-41.742 41.742s-41.742-18.726-41.742-41.742 18.726-41.742 41.742-41.742 41.742 18.725 41.742 41.742z"/><path d="m394.513 462.517h-34.215l-7.702-61.425c57.144-33.707 95.571-95.901 95.571-166.912 0-44.219-14.512-85.851-41.966-120.396-2.576-3.243-7.296-3.782-10.537-1.205-3.243 2.577-3.782 7.295-1.205 10.538 25.323 31.863 38.708 70.268 38.708 111.063 0 98.507-80.142 178.649-178.648 178.649s-178.649-80.141-178.649-178.648c0-40.97 14.216-80.996 40.03-112.705 24.075-29.574 57.205-50.801 93.841-60.278v27.465c0 12.678 10.314 22.993 22.993 22.993h43.568c12.678 0 22.992-10.315 22.992-22.993v-27.461c27.577 7.127 53.246 20.882 74.577 40.047 1.434 1.287 3.225 1.921 5.01 1.921 2.055 0 4.101-.839 5.582-2.488 2.769-3.081 2.515-7.823-.566-10.591-24.085-21.638-53.279-36.905-84.603-44.328v-.986c.001-24.69-20.086-44.777-44.775-44.777-24.69 0-44.777 20.087-44.777 44.777v.968c-41.208 9.769-78.565 33.207-105.474 66.261-27.985 34.376-43.398 77.765-43.398 122.175 0 71.011 38.427 133.205 95.571 166.912l-7.702 61.425h-32.317c-14.307 0-25.946 11.64-25.946 25.947v13.073c0 4.142 3.357 7.5 7.5 7.5h10.164c4.143 0 7.5-3.358 7.5-7.5s-3.357-7.5-7.5-7.5h-2.664v-5.573c0-6.036 4.91-10.947 10.946-10.947h278.091c6.036 0 10.946 4.911 10.946 10.947v5.573h-267.319c-4.143 0-7.5 3.358-7.5 7.5s3.357 7.5 7.5 7.5h274.819c4.143 0 7.5-3.358 7.5-7.5v-13.073c0-14.308-11.639-25.948-25.946-25.948zm-169.771-417.74c0-16.419 13.358-29.777 29.777-29.777s29.776 13.358 29.776 29.777v43.886c0 4.407-3.585 7.993-7.992 7.993h-43.568c-4.407 0-7.993-3.586-7.993-7.993zm-54.136 363.911c25.4 12.263 53.868 19.141 83.913 19.141 30.044 0 58.512-6.878 83.913-19.141l6.75 53.829h-181.326z"/></g></g></svg>